<svg aria-hidden="true" style="position: absolute; width: 0; height: 0; overflow: hidden;" version="1.1" xmlns="http://www.w3.org/2000/svg" xmlns:xlink="http://www.w3.org/1999/xlink">
<defs>
<symbol id="icon-checkmark-icon" viewBox="0 0 39 32">
<path fill="#fffffd" style="fill: var(--color1, #fffffd)" d="M38.203 3.69c1.102 0.974 1.205 2.66 0.231 3.769l-20.444 23.111c-0.236 0.267-0.523 0.484-0.845 0.638s-0.67 0.242-1.026 0.259c-0.356 0.017-0.712-0.038-1.046-0.161s-0.641-0.312-0.901-0.555l-13.333-12.444c-0.513-0.483-0.814-1.15-0.836-1.855s0.234-1.389 0.715-1.905c0.481-0.515 1.146-0.82 1.85-0.846s1.39 0.227 1.908 0.705l11.342 10.56 18.631-21.049c0.232-0.263 0.514-0.477 0.829-0.631s0.658-0.244 1.008-0.265c0.35-0.021 0.701 0.027 1.033 0.142s0.637 0.294 0.899 0.526h-0.014z"></path>
</symbol>
<symbol id="icon-close-icon" viewBox="0 0 29 32">
<path fill="none" stroke="#fffffd" style="stroke: var(--color1, #fffffd)" stroke-linejoin="round" stroke-linecap="round" stroke-miterlimit="4" stroke-width="4" d="M26.667 4l-24 24M2.667 4l24 24"></path>
</symbol>
<symbol id="icon-arrow-left" viewBox="0 0 32 32">
<path fill="#fffffd" style="fill: var(--color1, #fffffd)" d="M20 5.333l2.667 2.667-8 8 8 8-2.667 2.667-10.667-10.667 10.667-10.667z"></path>
</symbol>
<symbol id="icon-google-play-icon" viewBox="0 0 26 32">
<path fill="#ea4335" style="fill: var(--color2, #ea4335)" d="M12.307 15.299l-12.198 13.212c0.137 0.502 0.383 0.965 0.72 1.353s0.755 0.692 1.222 0.888c0.467 0.196 0.972 0.279 1.475 0.242s0.992-0.192 1.428-0.453l13.725-8.081-6.372-7.16z"></path>
<path fill="#fbbc04" style="fill: var(--color3, #fbbc04)" d="M24.641 13.054l-5.935-3.514-6.681 6.061 6.708 6.841 5.89-3.477c0.522-0.283 0.959-0.707 1.264-1.228s0.466-1.118 0.466-1.727c0-0.609-0.161-1.206-0.466-1.727s-0.742-0.946-1.264-1.228l0.018 0z"></path>
<path fill="#4285f4" style="fill: var(--color4, #4285f4)" d="M0.109 3.441c-0.074 0.282-0.11 0.573-0.109 0.864v23.341c0.001 0.292 0.037 0.582 0.109 0.865l12.616-12.874-12.616-12.197z"></path>
<path fill="#34a853" style="fill: var(--color5, #34a853)" d="M12.398 15.976l6.308-6.437-13.707-8.119c-0.516-0.312-1.102-0.478-1.7-0.479-1.483-0.003-2.787 1.015-3.19 2.49l12.289 12.545z"></path>
</symbol>
<symbol id="icon-burger" viewBox="0 0 51 32">
<path fill="#fffffd" style="fill: var(--color1, #fffffd)" d="M4 32c-0.756 0-1.388-0.256-1.899-0.768s-0.766-1.145-0.768-1.899c-0.002-0.754 0.254-1.387 0.768-1.899s1.147-0.768 1.899-0.768h42.667c0.755 0 1.389 0.256 1.901 0.768s0.767 1.145 0.765 1.899c-0.002 0.754-0.258 1.387-0.768 1.901s-1.143 0.769-1.899 0.765h-42.667zM4 18.667c-0.756 0-1.388-0.256-1.899-0.768s-0.766-1.145-0.768-1.899c-0.002-0.754 0.254-1.387 0.768-1.899s1.147-0.768 1.899-0.768h42.667c0.755 0 1.389 0.256 1.901 0.768s0.767 1.145 0.765 1.899c-0.002 0.754-0.258 1.388-0.768 1.901s-1.143 0.769-1.899 0.765h-42.667zM4 5.333c-0.756 0-1.388-0.256-1.899-0.768s-0.766-1.145-0.768-1.899c-0.002-0.754 0.254-1.387 0.768-1.899s1.147-0.768 1.899-0.768h42.667c0.755 0 1.389 0.256 1.901 0.768s0.767 1.145 0.765 1.899c-0.002 0.754-0.258 1.388-0.768 1.901s-1.143 0.769-1.899 0.765h-42.667z"></path>
</symbol>
</defs>
</svg>
